<?xml version="1.0" encoding="utf-8"?>
<svg viewBox="0 0 640 512" xmlns="http://www.w3.org/2000/svg">
  <defs>
    <linearGradient gradientUnits="userSpaceOnUse" x1="409.437" y1="221.934" x2="409.437" y2="533.054" id="gradient-1" gradientTransform="matrix(0.629458, -0.777034, 0.891179, 0.721925, -144.512777, 435.246068)">
      <stop offset="0" style="stop-color: rgb(110, 204, 218);"/>
      <stop offset="1" style="stop-color: rgb(21, 69, 86);"/>
    </linearGradient>
    <linearGradient gradientUnits="userSpaceOnUse" x1="207.567" y1="0.001" x2="207.567" y2="415.987" id="gradient-0" gradientTransform="matrix(0.602715, 0.797957, -0.746705, 0.564004, 279.298004, -14.311007)">
      <stop offset="0" style="stop-color: rgba(248, 248, 63, 0.87);"/>
      <stop offset="1" style="stop-color: rgb(177, 177, 45);"/>
    </linearGradient>
  </defs>
  <path d="M 119.572 212 C 119.572 263.081 160.987 304.496 212.068 304.496 C 223.317 304.496 233.955 302.188 243.933 298.512 C 252.029 259.605 273.451 225.844 303.558 202.038 C 298.552 155.693 259.704 119.504 212.068 119.504 C 160.964 119.504 119.572 160.896 119.572 212 Z" style="paint-order: fill; fill-rule: nonzero; fill: rgb(222, 222, 74);">
    <title>inner sun</title>
  </path>
  <path d="M 575.2 325.6 C 575.325 323.6 575.945 321.856 575.945 319.981 C 575.945 284.601 547.195 255.981 512.845 255.981 C 500.225 255.981 488.595 259.73 478.715 265.98 C 461.095 227.1 422.215 200.88 376.815 200.88 C 315.065 200.88 264.815 251 264.815 311.98 C 264.815 314.98 265.568 317.723 265.693 320.598 C 216.063 324.348 176.813 365.338 176.813 415.968 C 175.1 469 218.1 512 271.1 512 L 543.1 512 C 596.1 512 639.1 469.01 639.1 416.01 C 639.1 373.9 612.7 338.6 575.2 325.6 Z" style="paint-order: fill; fill-rule: nonzero; fill: url(#gradient-1);">
    <title>cloud</title>
  </path>
  <path d="M 100 212 C 100 150.14 150.14 100.9 211.1 100.9 C 263.75 100.9 307.6 137.35 319.6 186.32 C 338.7 177.1 358.7 172 379.1 172 C 383.707 172 388.252 172.381 392.78 172.82 L 416.91 138.06 C 422.055 130.646 417.807 120.39 408.926 118.79 L 321.2 102.78 L 305.2 14.21 C 303.6 5.325 293.4 1.081 285.9 6.226 L 212 57.54 L 138.1 6.225 C 130.6 1.08 120.4 5.326 118.8 14.21 L 102.78 102.78 L 14.21 118.8 C 5.326 120.4 1.078 130.7 6.223 138.1 L 57.523 212.04 L 6.224 285.9 C 1.079 293.314 5.327 303.57 14.207 305.17 L 102.78 321.2 L 118.79 409.78 C 120.394 418.661 130.65 422.91 138.06 417.762 L 148.77 410.33 C 151.495 375.18 168.62 343.82 194.6 322.23 C 141.1 313.8 100 267.9 100 212 Z" style="paint-order: fill; fill-rule: nonzero; fill: url(#gradient-0);">
    <title>sun rays</title>
  </path>
</svg>